<?xml version="1.0" standalone="no"?><!DOCTYPE svg PUBLIC "-//W3C//DTD SVG 1.1//EN" "http://www.w3.org/Graphics/SVG/1.1/DTD/svg11.dtd"><svg t="1660371141759" class="icon" viewBox="0 0 1024 1024" version="1.1" xmlns="http://www.w3.org/2000/svg" p-id="1332" xmlns:xlink="http://www.w3.org/1999/xlink" width="200" height="200"><defs><style type="text/css"></style></defs><path d="M908.8 187.733333l-341.333333-174.933333C550.4 4.266667 533.333333 0 512 0s-38.4 4.266667-55.466667 12.8l-341.333333 174.933333C68.266667 209.066667 42.666667 256 42.666667 302.933333v413.866667c0 46.933333 25.6 93.866667 68.266666 115.2l341.333334 174.933333c34.133333 17.066667 81.066667 17.066667 115.2 0l341.333333-174.933333c42.666667-21.333333 72.533333-68.266667 68.266667-115.2V302.933333c4.266667-46.933333-21.333333-93.866667-68.266667-115.2z m-413.866667-98.133333c12.8-4.266667 25.6-4.266667 38.4 0l311.466667 157.866667-332.8 170.666666-332.8-170.666666 315.733333-157.866667z m-341.333333 669.866667c-17.066667-8.533333-25.6-25.6-25.6-38.4V320l341.333333 174.933333v426.666667l-315.733333-162.133333z m721.066667 0L554.666667 921.6v-426.666667l341.333333-174.933333v396.8c0 17.066667-8.533333 34.133333-21.333333 42.666667z" p-id="1333" fill="#333333"></path></svg>