<?xml version="1.0" standalone="no"?><!DOCTYPE svg PUBLIC "-//W3C//DTD SVG 1.1//EN" "http://www.w3.org/Graphics/SVG/1.1/DTD/svg11.dtd"><svg t="1660309830625" class="icon" viewBox="0 0 1024 1024" version="1.1" xmlns="http://www.w3.org/2000/svg" p-id="980" xmlns:xlink="http://www.w3.org/1999/xlink" width="200" height="200"><defs><style type="text/css"></style></defs><path d="M337.8 487.9L737.9 888c14.7 14.7 14.7 38.7 0 53.3-14.7 14.7-38.7 14.7-53.3 0L284.4 541.2c-14.7-14.7-14.7-38.7 0-53.3 14.7-14.7 38.7-14.7 53.4 0z" fill="#e6e6e6" p-id="981"></path><path d="M711.2 961.8c-12.1 0-24.1-4.6-33.3-13.8L277.8 547.9c-18.4-18.4-18.4-48.3 0-66.7 18.4-18.4 48.3-18.4 66.7 0l400.1 400.1c18.4 18.4 18.4 48.3 0 66.7-9.3 9.2-21.3 13.8-33.4 13.8zM311.1 486.3c-7.2 0-14.5 2.8-20 8.3-11 11-11 29 0 40l400.1 400.1c11 11 29 11 40 0s11-29 0-40L331.1 494.6c-5.5-5.6-12.8-8.3-20-8.3z" fill="#e6e6e6" p-id="982"></path><path d="M737.9 141.2l-400.1 400c-14.7 14.7-38.7 14.7-53.3 0-14.7-14.7-14.7-38.7 0-53.3l400-400.1c14.7-14.7 38.7-14.7 53.3 0 14.7 14.7 14.7 38.7 0.1 53.4z" fill="#e6e6e6" p-id="983"></path><path d="M311.1 561.7c-12.1 0-24.1-4.6-33.3-13.8-18.4-18.4-18.4-48.3 0-66.7L677.9 81.1c18.4-18.4 48.3-18.4 66.7 0 18.4 18.4 18.4 48.3 0 66.7L344.4 547.9c-9.1 9.2-21.2 13.8-33.3 13.8zM711.2 86.2c-7.2 0-14.5 2.8-20 8.3L291.1 494.6c-5.3 5.3-8.2 12.4-8.2 20s2.9 14.7 8.2 20c10.6 10.6 29.4 10.6 40 0l400.1-400.1c11-11 11-29 0-40-5.5-5.5-12.8-8.3-20-8.3z" fill="#e6e6e6" p-id="984"></path></svg>