<?xml version="1.0" standalone="no"?><!DOCTYPE svg PUBLIC "-//W3C//DTD SVG 1.1//EN" "http://www.w3.org/Graphics/SVG/1.1/DTD/svg11.dtd"><svg t="1660389993542" class="icon" viewBox="0 0 1024 1024" version="1.1" xmlns="http://www.w3.org/2000/svg" p-id="2503" xmlns:xlink="http://www.w3.org/1999/xlink" width="200" height="200"><defs><style type="text/css"></style></defs><path d="M512 51.2a387.2 387.2 0 0 0-386.752 386.688 386.816 386.816 0 0 0 216.704 347.264v108.224c0 30.08 24.448 54.528 54.528 54.528h34.944a50.176 50.176 0 0 0 43.264 24.896h74.752a50.304 50.304 0 0 0 43.264-24.896h34.944c30.08 0 54.464-24.448 54.464-54.528v-108.224a386.816 386.816 0 0 0 216.704-347.264A387.2 387.2 0 0 0 512.064 51.2z m115.584 845.504h-51.328c-0.576-0.064-1.088-0.384-1.664-0.384s-1.152 0.32-1.792 0.384H396.416a3.328 3.328 0 0 1-3.328-3.328v-17.664h237.696v17.664a3.264 3.264 0 0 1-3.264 3.328z m18.624-151.36a25.6 25.6 0 0 0-15.36 23.424v55.744H537.6v-179.776l143.296-133.184a25.6 25.6 0 0 0-34.816-37.504L512.64 598.08 375.424 461.824a25.6 25.6 0 0 0-36.096 36.352L486.4 644.288v180.288H393.088v-55.744a25.472 25.472 0 0 0-15.36-23.424 335.744 335.744 0 0 1-201.344-307.456c0-185.024 150.528-335.488 335.552-335.488s335.552 150.528 335.552 335.488a335.552 335.552 0 0 1-201.344 307.456z" p-id="2504" fill="#333333"></path></svg>