<?xml version="1.0" standalone="no"?><!DOCTYPE svg PUBLIC "-//W3C//DTD SVG 1.1//EN" "http://www.w3.org/Graphics/SVG/1.1/DTD/svg11.dtd"><svg t="1660390017202" class="icon" viewBox="0 0 1024 1024" version="1.1" xmlns="http://www.w3.org/2000/svg" p-id="4457" xmlns:xlink="http://www.w3.org/1999/xlink" width="200" height="200"><defs><style type="text/css"></style></defs><path d="M343.168 888.576c-0.448 0-0.832-0.256-1.28-0.256v5.12c0 30.08 24.448 54.528 54.528 54.528h34.944a50.368 50.368 0 0 0 43.264 24.896h74.752a50.304 50.304 0 0 0 43.264-24.896h34.944c30.08 0 54.464-24.448 54.464-54.528v-4.864H343.168zM512 51.2a387.2 387.2 0 0 0-386.752 386.688 386.816 386.816 0 0 0 216.704 347.264v52.416c0.448 0 0.768-0.256 1.28-0.256h143.232v-193.088L339.392 498.112a25.6 25.6 0 1 1 36.096-36.352l137.216 136.256 133.44-124.032a25.536 25.536 0 1 1 34.816 37.504l-143.296 133.248v192.576h144.448v-52.16a386.816 386.816 0 0 0 216.704-347.264A387.2 387.2 0 0 0 512.064 51.136z" p-id="4458"></path></svg>