<svg width="193" height="293" viewBox="0 0 193 293" fill="none" xmlns="http://www.w3.org/2000/svg">
<path d="M27.5345 4V0C25.3253 0 23.5345 1.79086 23.5345 4L27.5345 4ZM165.034 4H169.034C169.034 1.79086 167.244 0 165.034 0V4ZM5.03448 37.5L1.90752 35.0056C1.3423 35.7141 1.03448 36.5936 1.03448 37.5H5.03448ZM5.03448 144H1.03448C1.03448 145.337 1.70247 146.586 2.8147 147.328C3.92693 148.07 5.33632 148.207 6.57077 147.693L5.03448 144ZM186.534 68.5L188.071 72.1932C189.563 71.5727 190.534 70.1157 190.534 68.5H186.534ZM186.534 37.5H190.534C190.534 36.5008 190.16 35.5377 189.486 34.8004L186.534 37.5ZM5.03448 243L3.46369 239.321C2.18271 239.868 1.2785 241.042 1.07669 242.42L5.03448 243ZM24.5345 288.5L22.3563 291.855C23.0048 292.276 23.7613 292.5 24.5345 292.5V288.5ZM166.034 288.5V292.5C166.817 292.5 167.582 292.271 168.235 291.84L166.034 288.5ZM186.534 266L190.16 267.689C190.407 267.16 190.534 266.583 190.534 266H186.534ZM186.534 165.5H190.534C190.534 164.156 189.86 162.903 188.739 162.162C187.617 161.422 186.199 161.294 184.964 161.821L186.534 165.5ZM7.03448 272.5L3.20807 273.666C3.32569 274.052 3.50108 274.418 3.72827 274.751L7.03448 272.5ZM31.8697 167.497C34.0769 167.588 35.9401 165.872 36.0311 163.665C36.1221 161.458 34.4066 159.594 32.1993 159.503L31.8697 167.497ZM48.7913 199.398C50.392 197.876 50.4553 195.344 48.9327 193.743C47.4101 192.142 44.8783 192.079 43.2776 193.602L48.7913 199.398ZM96.1384 130.838C95.2205 128.829 92.8474 127.944 90.838 128.862C88.8286 129.78 87.9437 132.153 88.8616 134.162L96.1384 130.838ZM110.534 173.5L106.859 175.078L108.51 178.925L112.278 177.1L110.534 173.5ZM143.244 162.1C145.232 161.137 146.063 158.744 145.1 156.756C144.137 154.768 141.744 153.937 139.756 154.9L143.244 162.1ZM27.5345 8H165.034V0H27.5345V8ZM161.034 4V18.5H169.034V4H161.034ZM165.034 14.5H27.5345V22.5H165.034V14.5ZM31.5345 18.5V4H23.5345V18.5H31.5345ZM26.015 14.7998C22.3938 16.2869 18.975 17.9854 15.0967 21.0852C11.2821 24.134 7.14545 28.4394 1.90752 35.0056L8.16144 39.9944C13.2127 33.6622 16.9275 29.8632 20.0914 27.3344C23.1915 24.8566 25.8781 23.5043 29.054 22.2002L26.015 14.7998ZM6.57077 147.693L188.071 72.1932L184.998 64.8068L3.49818 140.307L6.57077 147.693ZM186.534 68.5C190.534 68.5 190.534 68.4999 190.534 68.4998C190.534 68.4996 190.534 68.4994 190.534 68.4991C190.534 68.4988 190.534 68.4985 190.534 68.4981C190.534 68.4976 190.534 68.4971 190.534 68.4966C190.534 68.496 190.534 68.4953 190.534 68.4946C190.534 68.4939 190.534 68.4931 190.534 68.4923C190.534 68.4914 190.534 68.4905 190.534 68.4895C190.534 68.4885 190.534 68.4874 190.534 68.4863C190.534 68.4851 190.534 68.4839 190.534 68.4826C190.534 68.4813 190.534 68.48 190.534 68.4786C190.534 68.4771 190.534 68.4757 190.534 68.4741C190.534 68.4725 190.534 68.4709 190.534 68.4692C190.534 68.4675 190.534 68.4657 190.534 68.4639C190.534 68.462 190.534 68.4601 190.534 68.4581C190.534 68.4562 190.534 68.4541 190.534 68.452C190.534 68.4499 190.534 68.4477 190.534 68.4454C190.534 68.4432 190.534 68.4408 190.534 68.4385C190.534 68.4361 190.534 68.4336 190.534 68.4311C190.534 68.4285 190.534 68.4259 190.534 68.4233C190.534 68.4206 190.534 68.4178 190.534 68.415C190.534 68.4122 190.534 68.4094 190.534 68.4064C190.534 68.4035 190.534 68.4005 190.534 68.3974C190.534 68.3943 190.534 68.3912 190.534 68.3879C190.534 68.3847 190.534 68.3815 190.534 68.3781C190.534 68.3748 190.534 68.3713 190.534 68.3679C190.534 68.3644 190.534 68.3608 190.534 68.3572C190.534 68.3536 190.534 68.3499 190.534 68.3461C190.534 68.3424 190.534 68.3386 190.534 68.3347C190.534 68.3308 190.534 68.3268 190.534 68.3228C190.534 68.3188 190.534 68.3147 190.534 68.3106C190.534 68.3064 190.534 68.3022 190.534 68.2979C190.534 68.2936 190.534 68.2893 190.534 68.2849C190.534 68.2804 190.534 68.276 190.534 68.2714C190.534 68.2669 190.534 68.2622 190.534 68.2576C190.534 68.2529 190.534 68.2481 190.534 68.2433C190.534 68.2385 190.534 68.2336 190.534 68.2287C190.534 68.2238 190.534 68.2188 190.534 68.2137C190.534 68.2086 190.534 68.2035 190.534 68.1983C190.534 68.1931 190.534 68.1878 190.534 68.1825C190.534 68.1771 190.534 68.1718 190.534 68.1663C190.534 68.1608 190.534 68.1553 190.534 68.1497C190.534 68.1441 190.534 68.1385 190.534 68.1328C190.534 68.127 190.534 68.1213 190.534 68.1154C190.534 68.1096 190.534 68.1037 190.534 68.0977C190.534 68.0917 190.534 68.0857 190.534 68.0796C190.534 68.0735 190.534 68.0673 190.534 68.0611C190.534 68.0549 190.534 68.0486 190.534 68.0422C190.534 68.0359 190.534 68.0295 190.534 68.023C190.534 68.0165 190.534 68.01 190.534 68.0034C190.534 67.9968 190.534 67.9901 190.534 67.9834C190.534 67.9766 190.534 67.9698 190.534 67.963C190.534 67.9561 190.534 67.9492 190.534 67.9422C190.534 67.9353 190.534 67.9282 190.534 67.9211C190.534 67.914 190.534 67.9069 190.534 67.8996C190.534 67.8924 190.534 67.8851 190.534 67.8778C190.534 67.8704 190.534 67.863 190.534 67.8555C190.534 67.8481 190.534 67.8405 190.534 67.8329C190.534 67.8253 190.534 67.8177 190.534 67.81C190.534 67.8022 190.534 67.7945 190.534 67.7866C190.534 67.7788 190.534 67.7709 190.534 67.7629C190.534 67.755 190.534 67.747 190.534 67.7389C190.534 67.7308 190.534 67.7226 190.534 67.7144C190.534 67.7062 190.534 67.698 190.534 67.6897C190.534 67.6813 190.534 67.673 190.534 67.6645C190.534 67.6561 190.534 67.6476 190.534 67.639C190.534 67.6304 190.534 67.6218 190.534 67.6131C190.534 67.6045 190.534 67.5957 190.534 67.5869C190.534 67.5781 190.534 67.5693 190.534 67.5604C190.534 67.5514 190.534 67.5425 190.534 67.5334C190.534 67.5244 190.534 67.5153 190.534 67.5061C190.534 67.497 190.534 67.4878 190.534 67.4785C190.534 67.4692 190.534 67.4599 190.534 67.4505C190.534 67.4411 190.534 67.4317 190.534 67.4222C190.534 67.4127 190.534 67.4031 190.534 67.3935C190.534 67.3839 190.534 67.3742 190.534 67.3645C190.534 67.3547 190.534 67.3449 190.534 67.3351C190.534 67.3252 190.534 67.3153 190.534 67.3054C190.534 67.2954 190.534 67.2854 190.534 67.2753C190.534 67.2652 190.534 67.2551 190.534 67.2449C190.534 67.2347 190.534 67.2245 190.534 67.2141C190.534 67.2038 190.534 67.1935 190.534 67.1831C190.534 67.1726 190.534 67.1622 190.534 67.1516C190.534 67.1411 190.534 67.1305 190.534 67.1199C190.534 67.1092 190.534 67.0985 190.534 67.0877C190.534 67.077 190.534 67.0662 190.534 67.0553C190.534 67.0444 190.534 67.0335 190.534 67.0225C190.534 67.0115 190.534 67.0005 190.534 66.9894C190.534 66.9783 190.534 66.9672 190.534 66.956C190.534 66.9448 190.534 66.9335 190.534 66.9222C190.534 66.9109 190.534 66.8995 190.534 66.8881C190.534 66.8767 190.534 66.8652 190.534 66.8537C190.534 66.8421 190.534 66.8305 190.534 66.8189C190.534 66.8073 190.534 66.7956 190.534 66.7838C190.534 66.7721 190.534 66.7602 190.534 66.7484C190.534 66.7365 190.534 66.7246 190.534 66.7126C190.534 66.7007 190.534 66.6887 190.534 66.6766C190.534 66.6645 190.534 66.6524 190.534 66.6402C190.534 66.628 190.534 66.6158 190.534 66.6035C190.534 66.5912 190.534 66.5789 190.534 66.5665C190.534 66.5541 190.534 66.5416 190.534 66.5291C190.534 66.5166 190.534 66.5041 190.534 66.4915C190.534 66.4789 190.534 66.4662 190.534 66.4535C190.534 66.4408 190.534 66.428 190.534 66.4152C190.534 66.4024 190.534 66.3895 190.534 66.3766C190.534 66.3637 190.534 66.3507 190.534 66.3377C190.534 66.3246 190.534 66.3116 190.534 66.2984C190.534 66.2853 190.534 66.2721 190.534 66.2589C190.534 66.2456 190.534 66.2324 190.534 66.219C190.534 66.2057 190.534 66.1923 190.534 66.1789C190.534 66.1654 190.534 66.1519 190.534 66.1384C190.534 66.1248 190.534 66.1113 190.534 66.0976C190.534 66.084 190.534 66.0703 190.534 66.0565C190.534 66.0428 190.534 66.029 190.534 66.0151C190.534 66.0013 190.534 65.9874 190.534 65.9735C190.534 65.9595 190.534 65.9455 190.534 65.9315C190.534 65.9174 190.534 65.9033 190.534 65.8892C190.534 65.875 190.534 65.8608 190.534 65.8466C190.534 65.8323 190.534 65.8181 190.534 65.8037C190.534 65.7894 190.534 65.775 190.534 65.7605C190.534 65.7461 190.534 65.7316 190.534 65.717C190.534 65.7025 190.534 65.6879 190.534 65.6733C190.534 65.6586 190.534 65.6439 190.534 65.6292C190.534 65.6145 190.534 65.5997 190.534 65.5848C190.534 65.57 190.534 65.5551 190.534 65.5402C190.534 65.5253 190.534 65.5103 190.534 65.4952C190.534 65.4802 190.534 65.4651 190.534 65.45C190.534 65.4349 190.534 65.4197 190.534 65.4045C190.534 65.3893 190.534 65.374 190.534 65.3587C190.534 65.3434 190.534 65.328 190.534 65.3126C190.534 65.2972 190.534 65.2817 190.534 65.2662C190.534 65.2507 190.534 65.2352 190.534 65.2196C190.534 65.204 190.534 65.1883 190.534 65.1726C190.534 65.1569 190.534 65.1412 190.534 65.1254C190.534 65.1096 190.534 65.0938 190.534 65.0779C190.534 65.062 190.534 65.0461 190.534 65.0301C190.534 65.0142 190.534 64.9981 190.534 64.9821C190.534 64.966 190.534 64.9499 190.534 64.9337C190.534 64.9176 190.534 64.9014 190.534 64.8851C190.534 64.8689 190.534 64.8526 190.534 64.8362C190.534 64.8199 190.534 64.8035 190.534 64.7871C190.534 64.7707 190.534 64.7542 190.534 64.7377C190.534 64.7211 190.534 64.7046 190.534 64.688C190.534 64.6714 190.534 64.6547 190.534 64.638C190.534 64.6213 190.534 64.6046 190.534 64.5878C190.534 64.571 190.534 64.5541 190.534 64.5373C190.534 64.5204 190.534 64.5035 190.534 64.4865C190.534 64.4695 190.534 64.4525 190.534 64.4355C190.534 64.4184 190.534 64.4013 190.534 64.3842C190.534 64.367 190.534 64.3498 190.534 64.3326C190.534 64.3154 190.534 64.2981 190.534 64.2808C190.534 64.2635 190.534 64.2461 190.534 64.2287C190.534 64.2113 190.534 64.1939 190.534 64.1764C190.534 64.1589 190.534 64.1413 190.534 64.1238C190.534 64.1062 190.534 64.0886 190.534 64.0709C190.534 64.0532 190.534 64.0355 190.534 64.0178C190.534 64.0001 190.534 63.9823 190.534 63.9644C190.534 63.9466 190.534 63.9287 190.534 63.9108C190.534 63.8929 190.534 63.8749 190.534 63.8569C190.534 63.8389 190.534 63.8209 190.534 63.8028C190.534 63.7847 190.534 63.7666 190.534 63.7485C190.534 63.7303 190.534 63.7121 190.534 63.6938C190.534 63.6756 190.534 63.6573 190.534 63.639C190.534 63.6206 190.534 63.6023 190.534 63.5838C190.534 63.5654 190.534 63.547 190.534 63.5285C190.534 63.51 190.534 63.4915 190.534 63.4729C190.534 63.4543 190.534 63.4357 190.534 63.417C190.534 63.3984 190.534 63.3797 190.534 63.361C190.534 63.3422 190.534 63.3234 190.534 63.3046C190.534 63.2858 190.534 63.2669 190.534 63.2481C190.534 63.2292 190.534 63.2102 190.534 63.1912C190.534 63.1723 190.534 63.1533 190.534 63.1342C190.534 63.1151 190.534 63.0961 190.534 63.0769C190.534 63.0578 190.534 63.0386 190.534 63.0194C190.534 63.0002 190.534 62.9809 190.534 62.9617C190.534 62.9424 190.534 62.923 190.534 62.9037C190.534 62.8843 190.534 62.8649 190.534 62.8455C190.534 62.826 190.534 62.8065 190.534 62.787C190.534 62.7675 190.534 62.7479 190.534 62.7283C190.534 62.7087 190.534 62.6891 190.534 62.6694C190.534 62.6498 190.534 62.6301 190.534 62.6103C190.534 62.5906 190.534 62.5708 190.534 62.551C190.534 62.5311 190.534 62.5113 190.534 62.4914C190.534 62.4715 190.534 62.4515 190.534 62.4316C190.534 62.4116 190.534 62.3916 190.534 62.3716C190.534 62.3515 190.534 62.3314 190.534 62.3113C190.534 62.2912 190.534 62.271 190.534 62.2508C190.534 62.2306 190.534 62.2104 190.534 62.1902C190.534 62.1699 190.534 62.1496 190.534 62.1293C190.534 62.1089 190.534 62.0885 190.534 62.0681C190.534 62.0477 190.534 62.0273 190.534 62.0068C190.534 61.9863 190.534 61.9658 190.534 61.9452C190.534 61.9247 190.534 61.9041 190.534 61.8835C190.534 61.8629 190.534 61.8422 190.534 61.8215C190.534 61.8008 190.534 61.7801 190.534 61.7593C190.534 61.7386 190.534 61.7178 190.534 61.6969C190.534 61.6761 190.534 61.6552 190.534 61.6343C190.534 61.6134 190.534 61.5925 190.534 61.5715C190.534 61.5505 190.534 61.5295 190.534 61.5085C190.534 61.4875 190.534 61.4664 190.534 61.4453C190.534 61.4242 190.534 61.403 190.534 61.3819C190.534 61.3607 190.534 61.3395 190.534 61.3182C190.534 61.297 190.534 61.2757 190.534 61.2544C190.534 61.2331 190.534 61.2117 190.534 61.1904C190.534 61.169 190.534 61.1476 190.534 61.1261C190.534 61.1047 190.534 61.0832 190.534 61.0617C190.534 61.0402 190.534 61.0186 190.534 60.9971C190.534 60.9755 190.534 60.9539 190.534 60.9323C190.534 60.9106 190.534 60.8889 190.534 60.8672C190.534 60.8455 190.534 60.8238 190.534 60.802C190.534 60.7803 190.534 60.7585 190.534 60.7366C190.534 60.7148 190.534 60.6929 190.534 60.671C190.534 60.6491 190.534 60.6272 190.534 60.6052C190.534 60.5833 190.534 60.5613 190.534 60.5393C190.534 60.5172 190.534 60.4952 190.534 60.4731C190.534 60.451 190.534 60.4289 190.534 60.4068C190.534 60.3846 190.534 60.3624 190.534 60.3402C190.534 60.318 190.534 60.2958 190.534 60.2735C190.534 60.2512 190.534 60.2289 190.534 60.2066C190.534 60.1843 190.534 60.1619 190.534 60.1395C190.534 60.1171 190.534 60.0947 190.534 60.0723C190.534 60.0498 190.534 60.0273 190.534 60.0048C190.534 59.9823 190.534 59.9598 190.534 59.9372C190.534 59.9146 190.534 59.892 190.534 59.8694C190.534 59.8468 190.534 59.8241 190.534 59.8014C190.534 59.7787 190.534 59.756 190.534 59.7333C190.534 59.7105 190.534 59.6877 190.534 59.6649C190.534 59.6421 190.534 59.6193 190.534 59.5964C190.534 59.5736 190.534 59.5507 190.534 59.5278C190.534 59.5048 190.534 59.4819 190.534 59.4589C190.534 59.4359 190.534 59.4129 190.534 59.3899C190.534 59.3669 190.534 59.3438 190.534 59.3207C190.534 59.2976 190.534 59.2745 190.534 59.2514C190.534 59.2282 190.534 59.2051 190.534 59.1819C190.534 59.1587 190.534 59.1354 190.534 59.1122C190.534 59.0889 190.534 59.0656 190.534 59.0423C190.534 59.019 190.534 58.9957 190.534 58.9723C190.534 58.949 190.534 58.9256 190.534 58.9022C190.534 58.8788 190.534 58.8553 190.534 58.8318C190.534 58.8084 190.534 58.7849 190.534 58.7614C190.534 58.7378 190.534 58.7143 190.534 58.6907C190.534 58.6671 190.534 58.6435 190.534 58.6199C190.534 58.5963 190.534 58.5726 190.534 58.549C190.534 58.5253 190.534 58.5016 190.534 58.4778C190.534 58.4541 190.534 58.4304 190.534 58.4066C190.534 58.3828 190.534 58.359 190.534 58.3352C190.534 58.3113 190.534 58.2875 190.534 58.2636C190.534 58.2397 190.534 58.2158 190.534 58.1919C190.534 58.1679 190.534 58.144 190.534 58.12C190.534 58.096 190.534 58.072 190.534 58.048C190.534 58.024 190.534 57.9999 190.534 57.9758C190.534 57.9518 190.534 57.9276 190.534 57.9035C190.534 57.8794 190.534 57.8552 190.534 57.8311C190.534 57.8069 190.534 57.7827 190.534 57.7585C190.534 57.7343 190.534 57.71 190.534 57.6857C190.534 57.6615 190.534 57.6372 190.534 57.6129C190.534 57.5885 190.534 57.5642 190.534 57.5398C190.534 57.5155 190.534 57.4911 190.534 57.4667C190.534 57.4423 190.534 57.4179 190.534 57.3934C190.534 57.3689 190.534 57.3445 190.534 57.32C190.534 57.2955 190.534 57.2709 190.534 57.2464C190.534 57.2219 190.534 57.1973 190.534 57.1727C190.534 57.1481 190.534 57.1235 190.534 57.0989C190.534 57.0742 190.534 57.0496 190.534 57.0249C190.534 57.0002 190.534 56.9755 190.534 56.9508C190.534 56.9261 190.534 56.9014 190.534 56.8766C190.534 56.8518 190.534 56.827 190.534 56.8022C190.534 56.7774 190.534 56.7526 190.534 56.7278C190.534 56.7029 190.534 56.6781 190.534 56.6532C190.534 56.6283 190.534 56.6034 190.534 56.5784C190.534 56.5535 190.534 56.5286 190.534 56.5036C190.534 56.4786 190.534 56.4536 190.534 56.4286C190.534 56.4036 190.534 56.3786 190.534 56.3535C190.534 56.3285 190.534 56.3034 190.534 56.2783C190.534 56.2532 190.534 56.2281 190.534 56.203C190.534 56.1778 190.534 56.1527 190.534 56.1275C190.534 56.1023 190.534 56.0771 190.534 56.0519C190.534 56.0267 190.534 56.0015 190.534 55.9763C190.534 55.951 190.534 55.9257 190.534 55.9005C190.534 55.8752 190.534 55.8499 190.534 55.8245C190.534 55.7992 190.534 55.7739 190.534 55.7485C190.534 55.7232 190.534 55.6978 190.534 55.6724C190.534 55.647 190.534 55.6216 190.534 55.5961C190.534 55.5707 190.534 55.5452 190.534 55.5198C190.534 55.4943 190.534 55.4688 190.534 55.4433C190.534 55.4178 190.534 55.3923 190.534 55.3667C190.534 55.3412 190.534 55.3156 190.534 55.2901C190.534 55.2645 190.534 55.2389 190.534 55.2133C190.534 55.1877 190.534 55.1621 190.534 55.1364C190.534 55.1108 190.534 55.0851 190.534 55.0594C190.534 55.0337 190.534 55.0081 190.534 54.9823C190.534 54.9566 190.534 54.9309 190.534 54.9052C190.534 54.8794 190.534 54.8537 190.534 54.8279C190.534 54.8021 190.534 54.7763 190.534 54.7505C190.534 54.7247 190.534 54.6989 190.534 54.673C190.534 54.6472 190.534 54.6213 190.534 54.5955C190.534 54.5696 190.534 54.5437 190.534 54.5178C190.534 54.4919 190.534 54.466 190.534 54.44C190.534 54.4141 190.534 54.3882 190.534 54.3622C190.534 54.3362 190.534 54.3102 190.534 54.2843C190.534 54.2583 190.534 54.2322 190.534 54.2062C190.534 54.1802 190.534 54.1542 190.534 54.1281C190.534 54.1021 190.534 54.076 190.534 54.0499C190.534 54.0238 190.534 53.9977 190.534 53.9716C190.534 53.9455 190.534 53.9194 190.534 53.8932C190.534 53.8671 190.534 53.841 190.534 53.8148C190.534 53.7886 190.534 53.7624 190.534 53.7363C190.534 53.7101 190.534 53.6839 190.534 53.6576C190.534 53.6314 190.534 53.6052 190.534 53.5789C190.534 53.5527 190.534 53.5264 190.534 53.5002C190.534 53.4739 190.534 53.4476 190.534 53.4213C190.534 53.395 190.534 53.3687 190.534 53.3424C190.534 53.316 190.534 53.2897 190.534 53.2634C190.534 53.237 190.534 53.2107 190.534 53.1843C190.534 53.1579 190.534 53.1315 190.534 53.1051C190.534 53.0787 190.534 53.0523 190.534 53.0259C190.534 52.9995 190.534 52.973 190.534 52.9466C190.534 52.9202 190.534 52.8937 190.534 52.8672C190.534 52.8408 190.534 52.8143 190.534 52.7878C190.534 52.7613 190.534 52.7348 190.534 52.7083C190.534 52.6818 190.534 52.6553 190.534 52.6287C190.534 52.6022 190.534 52.5756 190.534 52.5491C190.534 52.5225 190.534 52.496 190.534 52.4694C190.534 52.4428 190.534 52.4162 190.534 52.3896C190.534 52.363 190.534 52.3364 190.534 52.3098C190.534 52.2832 190.534 52.2566 190.534 52.2299C190.534 52.2033 190.534 52.1766 190.534 52.15C190.534 52.1233 190.534 52.0967 190.534 52.07C190.534 52.0433 190.534 52.0166 190.534 51.9899C190.534 51.9632 190.534 51.9365 190.534 51.9098C190.534 51.8831 190.534 51.8564 190.534 51.8296C190.534 51.8029 190.534 51.7762 190.534 51.7494C190.534 51.7227 190.534 51.6959 190.534 51.6691C190.534 51.6424 190.534 51.6156 190.534 51.5888C190.534 51.562 190.534 51.5352 190.534 51.5084C190.534 51.4816 190.534 51.4548 190.534 51.428C190.534 51.4012 190.534 51.3744 190.534 51.3475C190.534 51.3207 190.534 51.2939 190.534 51.267C190.534 51.2402 190.534 51.2133 190.534 51.1865C190.534 51.1596 190.534 51.1327 190.534 51.1058C190.534 51.079 190.534 51.0521 190.534 51.0252C190.534 50.9983 190.534 50.9714 190.534 50.9445C190.534 50.9176 190.534 50.8907 190.534 50.8638C190.534 50.8368 190.534 50.8099 190.534 50.783C190.534 50.7561 190.534 50.7291 190.534 50.7022C190.534 50.6752 190.534 50.6483 190.534 50.6213C190.534 50.5944 190.534 50.5674 190.534 50.5404C190.534 50.5135 190.534 50.4865 190.534 50.4595C190.534 50.4325 190.534 50.4055 190.534 50.3786C190.534 50.3516 190.534 50.3246 190.534 50.2976C190.534 50.2706 190.534 50.2436 190.534 50.2165C190.534 50.1895 190.534 50.1625 190.534 50.1355C190.534 50.1085 190.534 50.0814 190.534 50.0544C190.534 50.0274 190.534 50.0003 190.534 49.9733C190.534 49.9463 190.534 49.9192 190.534 49.8922C190.534 49.8651 190.534 49.8381 190.534 49.811C190.534 49.7839 190.534 49.7569 190.534 49.7298C190.534 49.7027 190.534 49.6757 190.534 49.6486C190.534 49.6215 190.534 49.5944 190.534 49.5674C190.534 49.5403 190.534 49.5132 190.534 49.4861C190.534 49.459 190.534 49.4319 190.534 49.4048C190.534 49.3777 190.534 49.3506 190.534 49.3235C190.534 49.2964 190.534 49.2693 190.534 49.2422C190.534 49.2151 190.534 49.188 190.534 49.1609C190.534 49.1338 190.534 49.1067 190.534 49.0795C190.534 49.0524 190.534 49.0253 190.534 48.9982C190.534 48.9711 190.534 48.9439 190.534 48.9168C190.534 48.8897 190.534 48.8625 190.534 48.8354C190.534 48.8083 190.534 48.7812 190.534 48.754C190.534 48.7269 190.534 48.6997 190.534 48.6726C190.534 48.6455 190.534 48.6183 190.534 48.5912C190.534 48.5641 190.534 48.5369 190.534 48.5098C190.534 48.4826 190.534 48.4555 190.534 48.4283C190.534 48.4012 190.534 48.374 190.534 48.3469C190.534 48.3198 190.534 48.2926 190.534 48.2655C190.534 48.2383 190.534 48.2112 190.534 48.184C190.534 48.1569 190.534 48.1297 190.534 48.1026C190.534 48.0754 190.534 48.0483 190.534 48.0211C190.534 47.994 190.534 47.9668 190.534 47.9397C190.534 47.9125 190.534 47.8854 190.534 47.8582C190.534 47.8311 190.534 47.8039 190.534 47.7768C190.534 47.7496 190.534 47.7225 190.534 47.6954C190.534 47.6682 190.534 47.6411 190.534 47.6139C190.534 47.5868 190.534 47.5596 190.534 47.5325C190.534 47.5054 190.534 47.4782 190.534 47.4511C190.534 47.4239 190.534 47.3968 190.534 47.3697C190.534 47.3425 190.534 47.3154 190.534 47.2883C190.534 47.2611 190.534 47.234 190.534 47.2069C190.534 47.1797 190.534 47.1526 190.534 47.1255C190.534 47.0984 190.534 47.0712 190.534 47.0441C190.534 47.017 190.534 46.9899 190.534 46.9628C190.534 46.9357 190.534 46.9085 190.534 46.8814C190.534 46.8543 190.534 46.8272 190.534 46.8001C190.534 46.773 190.534 46.7459 190.534 46.7188C190.534 46.6917 190.534 46.6646 190.534 46.6375C190.534 46.6104 190.534 46.5834 190.534 46.5563C190.534 46.5292 190.534 46.5021 190.534 46.475C190.534 46.4479 190.534 46.4209 190.534 46.3938C190.534 46.3667 190.534 46.3397 190.534 46.3126C190.534 46.2855 190.534 46.2585 190.534 46.2314C190.534 46.2044 190.534 46.1773 190.534 46.1503C190.534 46.1232 190.534 46.0962 190.534 46.0692C190.534 46.0421 190.534 46.0151 190.534 45.9881C190.534 45.961 190.534 45.934 190.534 45.907C190.534 45.88 190.534 45.853 190.534 45.826C190.534 45.799 190.534 45.772 190.534 45.745C190.534 45.718 190.534 45.691 190.534 45.664C190.534 45.637 190.534 45.61 190.534 45.5831C190.534 45.5561 190.534 45.5291 190.534 45.5022C190.534 45.4752 190.534 45.4483 190.534 45.4213C190.534 45.3944 190.534 45.3674 190.534 45.3405C190.534 45.3135 190.534 45.2866 190.534 45.2597C190.534 45.2328 190.534 45.2058 190.534 45.1789C190.534 45.152 190.534 45.1251 190.534 45.0982C190.534 45.0713 190.534 45.0444 190.534 45.0176C190.534 44.9907 190.534 44.9638 190.534 44.9369C190.534 44.9101 190.534 44.8832 190.534 44.8564C190.534 44.8295 190.534 44.8027 190.534 44.7758C190.534 44.749 190.534 44.7221 190.534 44.6953C190.534 44.6685 190.534 44.6417 190.534 44.6149C190.534 44.5881 190.534 44.5613 190.534 44.5345C190.534 44.5077 190.534 44.4809 190.534 44.4541C190.534 44.4274 190.534 44.4006 190.534 44.3739C190.534 44.3471 190.534 44.3203 190.534 44.2936C190.534 44.2669 190.534 44.2401 190.534 44.2134C190.534 44.1867 190.534 44.16 190.534 44.1333C190.534 44.1066 190.534 44.0799 190.534 44.0532C190.534 44.0265 190.534 43.9999 190.534 43.9732C190.534 43.9465 190.534 43.9199 190.534 43.8932C190.534 43.8666 190.534 43.8399 190.534 43.8133C190.534 43.7867 190.534 43.7601 190.534 43.7335C190.534 43.7069 190.534 43.6803 190.534 43.6537C190.534 43.6271 190.534 43.6005 190.534 43.574C190.534 43.5474 190.534 43.5209 190.534 43.4943C190.534 43.4678 190.534 43.4412 190.534 43.4147C190.534 43.3882 190.534 43.3617 190.534 43.3352C190.534 43.3087 190.534 43.2822 190.534 43.2557C190.534 43.2293 190.534 43.2028 190.534 43.1763C190.534 43.1499 190.534 43.1234 190.534 43.097C190.534 43.0706 190.534 43.0442 190.534 43.0178C190.534 42.9914 190.534 42.965 190.534 42.9386C190.534 42.9122 190.534 42.8858 190.534 42.8595C190.534 42.8331 190.534 42.8068 190.534 42.7804C190.534 42.7541 190.534 42.7278 190.534 42.7015C190.534 42.6752 190.534 42.6489 190.534 42.6226C190.534 42.5963 190.534 42.57 190.534 42.5438C190.534 42.5175 190.534 42.4913 190.534 42.4651C190.534 42.4388 190.534 42.4126 190.534 42.3864C190.534 42.3602 190.534 42.334 190.534 42.3079C190.534 42.2817 190.534 42.2555 190.534 42.2294C190.534 42.2032 190.534 42.1771 190.534 42.151C190.534 42.1248 190.534 42.0987 190.534 42.0726C190.534 42.0466 190.534 42.0205 190.534 41.9944C190.534 41.9683 190.534 41.9423 190.534 41.9163C190.534 41.8902 190.534 41.8642 190.534 41.8382C190.534 41.8122 190.534 41.7862 190.534 41.7602C190.534 41.7343 190.534 41.7083 190.534 41.6824C190.534 41.6564 190.534 41.6305 190.534 41.6046C190.534 41.5787 190.534 41.5528 190.534 41.5269C190.534 41.501 190.534 41.4751 190.534 41.4493C190.534 41.4234 190.534 41.3976 190.534 41.3718C190.534 41.3459 190.534 41.3201 190.534 41.2943C190.534 41.2686 190.534 41.2428 190.534 41.217C190.534 41.1913 190.534 41.1655 190.534 41.1398C190.534 41.1141 190.534 41.0884 190.534 41.0627C190.534 41.037 190.534 41.0113 190.534 40.9857C190.534 40.96 190.534 40.9344 190.534 40.9088C190.534 40.8831 190.534 40.8575 190.534 40.8319C190.534 40.8064 190.534 40.7808 190.534 40.7552C190.534 40.7297 190.534 40.7041 190.534 40.6786C190.534 40.6531 190.534 40.6276 190.534 40.6021C190.534 40.5766 190.534 40.5512 190.534 40.5257C190.534 40.5003 190.534 40.4749 190.534 40.4494C190.534 40.424 190.534 40.3986 190.534 40.3733C190.534 40.3479 190.534 40.3225 190.534 40.2972C190.534 40.2719 190.534 40.2465 190.534 40.2212C190.534 40.1959 190.534 40.1707 190.534 40.1454C190.534 40.1201 190.534 40.0949 190.534 40.0697C190.534 40.0445 190.534 40.0193 190.534 39.9941C190.534 39.9689 190.534 39.9437 190.534 39.9186C190.534 39.8934 190.534 39.8683 190.534 39.8432C190.534 39.8181 190.534 39.793 190.534 39.7679C190.534 39.7429 190.534 39.7178 190.534 39.6928C190.534 39.6678 190.534 39.6428 190.534 39.6178C190.534 39.5928 190.534 39.5678 190.534 39.5429C190.534 39.5179 190.534 39.493 190.534 39.4681C190.534 39.4432 190.534 39.4183 190.534 39.3935C190.534 39.3686 190.534 39.3438 190.534 39.3189C190.534 39.2941 190.534 39.2693 190.534 39.2445C190.534 39.2198 190.534 39.195 190.534 39.1703C190.534 39.1455 190.534 39.1208 190.534 39.0961C190.534 39.0714 190.534 39.0468 190.534 39.0221C190.534 38.9975 190.534 38.9728 190.534 38.9482C190.534 38.9236 190.534 38.8991 190.534 38.8745C190.534 38.8499 190.534 38.8254 190.534 38.8009C190.534 38.7764 190.534 38.7519 190.534 38.7274C190.534 38.7029 190.534 38.6785 190.534 38.6541C190.534 38.6296 190.534 38.6052 190.534 38.5809C190.534 38.5565 190.534 38.5321 190.534 38.5078C190.534 38.4835 190.534 38.4591 190.534 38.4349C190.534 38.4106 190.534 38.3863 190.534 38.3621C190.534 38.3378 190.534 38.3136 190.534 38.2894C190.534 38.2652 190.534 38.2411 190.534 38.2169C190.534 38.1928 190.534 38.1687 190.534 38.1446C190.534 38.1205 190.534 38.0964 190.534 38.0724C190.534 38.0483 190.534 38.0243 190.534 38.0003C190.534 37.9763 190.534 37.9523 190.534 37.9284C190.534 37.9044 190.534 37.8805 190.534 37.8566C190.534 37.8327 190.534 37.8088 190.534 37.785C190.534 37.7611 190.534 37.7373 190.534 37.7135C190.534 37.6897 190.534 37.6659 190.534 37.6422C190.534 37.6184 190.534 37.5947 190.534 37.571C190.534 37.5473 190.534 37.5236 190.534 37.5H182.534C182.534 37.5236 182.534 37.5473 182.534 37.571C182.534 37.5947 182.534 37.6184 182.534 37.6422C182.534 37.6659 182.534 37.6897 182.534 37.7135C182.534 37.7373 182.534 37.7611 182.534 37.785C182.534 37.8088 182.534 37.8327 182.534 37.8566C182.534 37.8805 182.534 37.9044 182.534 37.9284C182.534 37.9523 182.534 37.9763 182.534 38.0003C182.534 38.0243 182.534 38.0483 182.534 38.0724C182.534 38.0964 182.534 38.1205 182.534 38.1446C182.534 38.1687 182.534 38.1928 182.534 38.2169C182.534 38.2411 182.534 38.2652 182.534 38.2894C182.534 38.3136 182.534 38.3378 182.534 38.3621C182.534 38.3863 182.534 38.4106 182.534 38.4349C182.534 38.4591 182.534 38.4835 182.534 38.5078C182.534 38.5321 182.534 38.5565 182.534 38.5809C182.534 38.6052 182.534 38.6296 182.534 38.6541C182.534 38.6785 182.534 38.7029 182.534 38.7274C182.534 38.7519 182.534 38.7764 182.534 38.8009C182.534 38.8254 182.534 38.8499 182.534 38.8745C182.534 38.8991 182.534 38.9236 182.534 38.9482C182.534 38.9728 182.534 38.9975 182.534 39.0221C182.534 39.0468 182.534 39.0714 182.534 39.0961C182.534 39.1208 182.534 39.1455 182.534 39.1703C182.534 39.195 182.534 39.2198 182.534 39.2445C182.534 39.2693 182.534 39.2941 182.534 39.3189C182.534 39.3438 182.534 39.3686 182.534 39.3935C182.534 39.4183 182.534 39.4432 182.534 39.4681C182.534 39.493 182.534 39.5179 182.534 39.5429C182.534 39.5678 182.534 39.5928 182.534 39.6178C182.534 39.6428 182.534 39.6678 182.534 39.6928C182.534 39.7178 182.534 39.7429 182.534 39.7679C182.534 39.793 182.534 39.8181 182.534 39.8432C182.534 39.8683 182.534 39.8934 182.534 39.9186C182.534 39.9437 182.534 39.9689 182.534 39.9941C182.534 40.0193 182.534 40.0445 182.534 40.0697C182.534 40.0949 182.534 40.1201 182.534 40.1454C182.534 40.1707 182.534 40.1959 182.534 40.2212C182.534 40.2465 182.534 40.2719 182.534 40.2972C182.534 40.3225 182.534 40.3479 182.534 40.3733C182.534 40.3986 182.534 40.424 182.534 40.4494C182.534 40.4749 182.534 40.5003 182.534 40.5257C182.534 40.5512 182.534 40.5766 182.534 40.6021C182.534 40.6276 182.534 40.6531 182.534 40.6786C182.534 40.7041 182.534 40.7297 182.534 40.7552C182.534 40.7808 182.534 40.8064 182.534 40.8319C182.534 40.8575 182.534 40.8831 182.534 40.9088C182.534 40.9344 182.534 40.96 182.534 40.9857C182.534 41.0113 182.534 41.037 182.534 41.0627C182.534 41.0884 182.534 41.1141 182.534 41.1398C182.534 41.1655 182.534 41.1913 182.534 41.217C182.534 41.2428 182.534 41.2686 182.534 41.2943C182.534 41.3201 182.534 41.3459 182.534 41.3718C182.534 41.3976 182.534 41.4234 182.534 41.4493C182.534 41.4751 182.534 41.501 182.534 41.5269C182.534 41.5528 182.534 41.5787 182.534 41.6046C182.534 41.6305 182.534 41.6564 182.534 41.6824C182.534 41.7083 182.534 41.7343 182.534 41.7602C182.534 41.7862 182.534 41.8122 182.534 41.8382C182.534 41.8642 182.534 41.8902 182.534 41.9163C182.534 41.9423 182.534 41.9683 182.534 41.9944C182.534 42.0205 182.534 42.0466 182.534 42.0726C182.534 42.0987 182.534 42.1248 182.534 42.151C182.534 42.1771 182.534 42.2032 182.534 42.2294C182.534 42.2555 182.534 42.2817 182.534 42.3079C182.534 42.334 182.534 42.3602 182.534 42.3864C182.534 42.4126 182.534 42.4388 182.534 42.4651C182.534 42.4913 182.534 42.5175 182.534 42.5438C182.534 42.57 182.534 42.5963 182.534 42.6226C182.534 42.6489 182.534 42.6752 182.534 42.7015C182.534 42.7278 182.534 42.7541 182.534 42.7804C182.534 42.8068 182.534 42.8331 182.534 42.8595C182.534 42.8858 182.534 42.9122 182.534 42.9386C182.534 42.965 182.534 42.9914 182.534 43.0178C182.534 43.0442 182.534 43.0706 182.534 43.097C182.534 43.1234 182.534 43.1499 182.534 43.1763C182.534 43.2028 182.534 43.2293 182.534 43.2557C182.534 43.2822 182.534 43.3087 182.534 43.3352C182.534 43.3617 182.534 43.3882 182.534 43.4147C182.534 43.4412 182.534 43.4678 182.534 43.4943C182.534 43.5209 182.534 43.5474 182.534 43.574C182.534 43.6005 182.534 43.6271 182.534 43.6537C182.534 43.6803 182.534 43.7069 182.534 43.7335C182.534 43.7601 182.534 43.7867 182.534 43.8133C182.534 43.8399 182.534 43.8666 182.534 43.8932C182.534 43.9199 182.534 43.9465 182.534 43.9732C182.534 43.9999 182.534 44.0265 182.534 44.0532C182.534 44.0799 182.534 44.1066 182.534 44.1333C182.534 44.16 182.534 44.1867 182.534 44.2134C182.534 44.2401 182.534 44.2669 182.534 44.2936C182.534 44.3203 182.534 44.3471 182.534 44.3739C182.534 44.4006 182.534 44.4274 182.534 44.4541C182.534 44.4809 182.534 44.5077 182.534 44.5345C182.534 44.5613 182.534 44.5881 182.534 44.6149C182.534 44.6417 182.534 44.6685 182.534 44.6953C182.534 44.7221 182.534 44.749 182.534 44.7758C182.534 44.8027 182.534 44.8295 182.534 44.8564C182.534 44.8832 182.534 44.9101 182.534 44.9369C182.534 44.9638 182.534 44.9907 182.534 45.0176C182.534 45.0444 182.534 45.0713 182.534 45.0982C182.534 45.1251 182.534 45.152 182.534 45.1789C182.534 45.2058 182.534 45.2328 182.534 45.2597C182.534 45.2866 182.534 45.3135 182.534 45.3405C182.534 45.3674 182.534 45.3944 182.534 45.4213C182.534 45.4483 182.534 45.4752 182.534 45.5022C182.534 45.5291 182.534 45.5561 182.534 45.5831C182.534 45.61 182.534 45.637 182.534 45.664C182.534 45.691 182.534 45.718 182.534 45.745C182.534 45.772 182.534 45.799 182.534 45.826C182.534 45.853 182.534 45.88 182.534 45.907C182.534 45.934 182.534 45.961 182.534 45.9881C182.534 46.0151 182.534 46.0421 182.534 46.0692C182.534 46.0962 182.534 46.1232 182.534 46.1503C182.534 46.1773 182.534 46.2044 182.534 46.2314C182.534 46.2585 182.534 46.2855 182.534 46.3126C182.534 46.3397 182.534 46.3667 182.534 46.3938C182.534 46.4209 182.534 46.4479 182.534 46.475C182.534 46.5021 182.534 46.5292 182.534 46.5563C182.534 46.5834 182.534 46.6104 182.534 46.6375C182.534 46.6646 182.534 46.6917 182.534 46.7188C182.534 46.7459 182.534 46.773 182.534 46.8001C182.534 46.8272 182.534 46.8543 182.534 46.8814C182.534 46.9085 182.534 46.9357 182.534 46.9628C182.534 46.9899 182.534 47.017 182.534 47.0441C182.534 47.0712 182.534 47.0984 182.534 47.1255C182.534 47.1526 182.534 47.1797 182.534 47.2069C182.534 47.234 182.534 47.2611 182.534 47.2883C182.534 47.3154 182.534 47.3425 182.534 47.3697C182.534 47.3968 182.534 47.4239 182.534 47.4511C182.534 47.4782 182.534 47.5054 182.534 47.5325C182.534 47.5596 182.534 47.5868 182.534 47.6139C182.534 47.6411 182.534 47.6682 182.534 47.6954C182.534 47.7225 182.534 47.7496 182.534 47.7768C182.534 47.8039 182.534 47.8311 182.534 47.8582C182.534 47.8854 182.534 47.9125 182.534 47.9397C182.534 47.9668 182.534 47.994 182.534 48.0211C182.534 48.0483 182.534 48.0754 182.534 48.1026C182.534 48.1297 182.534 48.1569 182.534 48.184C182.534 48.2112 182.534 48.2383 182.534 48.2655C182.534 48.2926 182.534 48.3198 182.534 48.3469C182.534 48.374 182.534 48.4012 182.534 48.4283C182.534 48.4555 182.534 48.4826 182.534 48.5098C182.534 48.5369 182.534 48.5641 182.534 48.5912C182.534 48.6183 182.534 48.6455 182.534 48.6726C182.534 48.6997 182.534 48.7269 182.534 48.754C182.534 48.7812 182.534 48.8083 182.534 48.8354C182.534 48.8625 182.534 48.8897 182.534 48.9168C182.534 48.9439 182.534 48.9711 182.534 48.9982C182.534 49.0253 182.534 49.0524 182.534 49.0795C182.534 49.1067 182.534 49.1338 182.534 49.1609C182.534 49.188 182.534 49.2151 182.534 49.2422C182.534 49.2693 182.534 49.2964 182.534 49.3235C182.534 49.3506 182.534 49.3777 182.534 49.4048C182.534 49.4319 182.534 49.459 182.534 49.4861C182.534 49.5132 182.534 49.5403 182.534 49.5674C182.534 49.5944 182.534 49.6215 182.534 49.6486C182.534 49.6757 182.534 49.7027 182.534 49.7298C182.534 49.7569 182.534 49.7839 182.534 49.811C182.534 49.8381 182.534 49.8651 182.534 49.8922C182.534 49.9192 182.534 49.9463 182.534 49.9733C182.534 50.0003 182.534 50.0274 182.534 50.0544C182.534 50.0814 182.534 50.1085 182.534 50.1355C182.534 50.1625 182.534 50.1895 182.534 50.2165C182.534 50.2436 182.534 50.2706 182.534 50.2976C182.534 50.3246 182.534 50.3516 182.534 50.3786C182.534 50.4055 182.534 50.4325 182.534 50.4595C182.534 50.4865 182.534 50.5135 182.534 50.5404C182.534 50.5674 182.534 50.5944 182.534 50.6213C182.534 50.6483 182.534 50.6752 182.534 50.7022C182.534 50.7291 182.534 50.7561 182.534 50.783C182.534 50.8099 182.534 50.8368 182.534 50.8638C182.534 50.8907 182.534 50.9176 182.534 50.9445C182.534 50.9714 182.534 50.9983 182.534 51.0252C182.534 51.0521 182.534 51.079 182.534 51.1058C182.534 51.1327 182.534 51.1596 182.534 51.1865C182.534 51.2133 182.534 51.2402 182.534 51.267C182.534 51.2939 182.534 51.3207 182.534 51.3475C182.534 51.3744 182.534 51.4012 182.534 51.428C182.534 51.4548 182.534 51.4816 182.534 51.5084C182.534 51.5352 182.534 51.562 182.534 51.5888C182.534 51.6156 182.534 51.6424 182.534 51.6691C182.534 51.6959 182.534 51.7227 182.534 51.7494C182.534 51.7762 182.534 51.8029 182.534 51.8296C182.534 51.8564 182.534 51.8831 182.534 51.9098C182.534 51.9365 182.534 51.9632 182.534 51.9899C182.534 52.0166 182.534 52.0433 182.534 52.07C182.534 52.0967 182.534 52.1233 182.534 52.15C182.534 52.1766 182.534 52.2033 182.534 52.2299C182.534 52.2566 182.534 52.2832 182.534 52.3098C182.534 52.3364 182.534 52.363 182.534 52.3896C182.534 52.4162 182.534 52.4428 182.534 52.4694C182.534 52.496 182.534 52.5225 182.534 52.5491C182.534 52.5756 182.534 52.6022 182.534 52.6287C182.534 52.6553 182.534 52.6818 182.534 52.7083C182.534 52.7348 182.534 52.7613 182.534 52.7878C182.534 52.8143 182.534 52.8408 182.534 52.8672C182.534 52.8937 182.534 52.9202 182.534 52.9466C182.534 52.973 182.534 52.9995 182.534 53.0259C182.534 53.0523 182.534 53.0787 182.534 53.1051C182.534 53.1315 182.534 53.1579 182.534 53.1843C182.534 53.2107 182.534 53.237 182.534 53.2634C182.534 53.2897 182.534 53.316 182.534 53.3424C182.534 53.3687 182.534 53.395 182.534 53.4213C182.534 53.4476 182.534 53.4739 182.534 53.5002C182.534 53.5264 182.534 53.5527 182.534 53.5789C182.534 53.6052 182.534 53.6314 182.534 53.6576C182.534 53.6839 182.534 53.7101 182.534 53.7363C182.534 53.7624 182.534 53.7886 182.534 53.8148C182.534 53.841 182.534 53.8671 182.534 53.8932C182.534 53.9194 182.534 53.9455 182.534 53.9716C182.534 53.9977 182.534 54.0238 182.534 54.0499C182.534 54.076 182.534 54.1021 182.534 54.1281C182.534 54.1542 182.534 54.1802 182.534 54.2062C182.534 54.2322 182.534 54.2583 182.534 54.2843C182.534 54.3102 182.534 54.3362 182.534 54.3622C182.534 54.3882 182.534 54.4141 182.534 54.44C182.534 54.466 182.534 54.4919 182.534 54.5178C182.534 54.5437 182.534 54.5696 182.534 54.5955C182.534 54.6213 182.534 54.6472 182.534 54.673C182.534 54.6989 182.534 54.7247 182.534 54.7505C182.534 54.7763 182.534 54.8021 182.534 54.8279C182.534 54.8537 182.534 54.8794 182.534 54.9052C182.534 54.9309 182.534 54.9566 182.534 54.9823C182.534 55.0081 182.534 55.0337 182.534 55.0594C182.534 55.0851 182.534 55.1108 182.534 55.1364C182.534 55.1621 182.534 55.1877 182.534 55.2133C182.534 55.2389 182.534 55.2645 182.534 55.2901C182.534 55.3156 182.534 55.3412 182.534 55.3667C182.534 55.3923 182.534 55.4178 182.534 55.4433C182.534 55.4688 182.534 55.4943 182.534 55.5198C182.534 55.5452 182.534 55.5707 182.534 55.5961C182.534 55.6216 182.534 55.647 182.534 55.6724C182.534 55.6978 182.534 55.7232 182.534 55.7485C182.534 55.7739 182.534 55.7992 182.534 55.8245C182.534 55.8499 182.534 55.8752 182.534 55.9005C182.534 55.9257 182.534 55.951 182.534 55.9763C182.534 56.0015 182.534 56.0267 182.534 56.0519C182.534 56.0771 182.534 56.1023 182.534 56.1275C182.534 56.1527 182.534 56.1778 182.534 56.203C182.534 56.2281 182.534 56.2532 182.534 56.2783C182.534 56.3034 182.534 56.3285 182.534 56.3535C182.534 56.3786 182.534 56.4036 182.534 56.4286C182.534 56.4536 182.534 56.4786 182.534 56.5036C182.534 56.5286 182.534 56.5535 182.534 56.5784C182.534 56.6034 182.534 56.6283 182.534 56.6532C182.534 56.6781 182.534 56.7029 182.534 56.7278C182.534 56.7526 182.534 56.7774 182.534 56.8022C182.534 56.827 182.534 56.8518 182.534 56.8766C182.534 56.9014 182.534 56.9261 182.534 56.9508C182.534 56.9755 182.534 57.0002 182.534 57.0249C182.534 57.0496 182.534 57.0742 182.534 57.0989C182.534 57.1235 182.534 57.1481 182.534 57.1727C182.534 57.1973 182.534 57.2219 182.534 57.2464C182.534 57.2709 182.534 57.2955 182.534 57.32C182.534 57.3445 182.534 57.3689 182.534 57.3934C182.534 57.4179 182.534 57.4423 182.534 57.4667C182.534 57.4911 182.534 57.5155 182.534 57.5398C182.534 57.5642 182.534 57.5885 182.534 57.6129C182.534 57.6372 182.534 57.6615 182.534 57.6857C182.534 57.71 182.534 57.7343 182.534 57.7585C182.534 57.7827 182.534 57.8069 182.534 57.8311C182.534 57.8552 182.534 57.8794 182.534 57.9035C182.534 57.9276 182.534 57.9518 182.534 57.9758C182.534 57.9999 182.534 58.024 182.534 58.048C182.534 58.072 182.534 58.096 182.534 58.12C182.534 58.144 182.534 58.1679 182.534 58.1919C182.534 58.2158 182.534 58.2397 182.534 58.2636C182.534 58.2875 182.534 58.3113 182.534 58.3352C182.534 58.359 182.534 58.3828 182.534 58.4066C182.534 58.4304 182.534 58.4541 182.534 58.4778C182.534 58.5016 182.534 58.5253 182.534 58.549C182.534 58.5726 182.534 58.5963 182.534 58.6199C182.534 58.6435 182.534 58.6671 182.534 58.6907C182.534 58.7143 182.534 58.7378 182.534 58.7614C182.534 58.7849 182.534 58.8084 182.534 58.8318C182.534 58.8553 182.534 58.8788 182.534 58.9022C182.534 58.9256 182.534 58.949 182.534 58.9723C182.534 58.9957 182.534 59.019 182.534 59.0423C182.534 59.0656 182.534 59.0889 182.534 59.1122C182.534 59.1354 182.534 59.1587 182.534 59.1819C182.534 59.2051 182.534 59.2282 182.534 59.2514C182.534 59.2745 182.534 59.2976 182.534 59.3207C182.534 59.3438 182.534 59.3669 182.534 59.3899C182.534 59.4129 182.534 59.4359 182.534 59.4589C182.534 59.4819 182.534 59.5048 182.534 59.5278C182.534 59.5507 182.534 59.5736 182.534 59.5964C182.534 59.6193 182.534 59.6421 182.534 59.6649C182.534 59.6877 182.534 59.7105 182.534 59.7333C182.534 59.756 182.534 59.7787 182.534 59.8014C182.534 59.8241 182.534 59.8468 182.534 59.8694C182.534 59.892 182.534 59.9146 182.534 59.9372C182.534 59.9598 182.534 59.9823 182.534 60.0048C182.534 60.0273 182.534 60.0498 182.534 60.0723C182.534 60.0947 182.534 60.1171 182.534 60.1395C182.534 60.1619 182.534 60.1843 182.534 60.2066C182.534 60.2289 182.534 60.2512 182.534 60.2735C182.534 60.2958 182.534 60.318 182.534 60.3402C182.534 60.3624 182.534 60.3846 182.534 60.4068C182.534 60.4289 182.534 60.451 182.534 60.4731C182.534 60.4952 182.534 60.5172 182.534 60.5393C182.534 60.5613 182.534 60.5833 182.534 60.6052C182.534 60.6272 182.534 60.6491 182.534 60.671C182.534 60.6929 182.534 60.7148 182.534 60.7366C182.534 60.7585 182.534 60.7803 182.534 60.802C182.534 60.8238 182.534 60.8455 182.534 60.8672C182.534 60.8889 182.534 60.9106 182.534 60.9323C182.534 60.9539 182.534 60.9755 182.534 60.9971C182.534 61.0186 182.534 61.0402 182.534 61.0617C182.534 61.0832 182.534 61.1047 182.534 61.1261C182.534 61.1476 182.534 61.169 182.534 61.1904C182.534 61.2117 182.534 61.2331 182.534 61.2544C182.534 61.2757 182.534 61.297 182.534 61.3182C182.534 61.3395 182.534 61.3607 182.534 61.3819C182.534 61.403 182.534 61.4242 182.534 61.4453C182.534 61.4664 182.534 61.4875 182.534 61.5085C182.534 61.5295 182.534 61.5505 182.534 61.5715C182.534 61.5925 182.534 61.6134 182.534 61.6343C182.534 61.6552 182.534 61.6761 182.534 61.6969C182.534 61.7178 182.534 61.7386 182.534 61.7593C182.534 61.7801 182.534 61.8008 182.534 61.8215C182.534 61.8422 182.534 61.8629 182.534 61.8835C182.534 61.9041 182.534 61.9247 182.534 61.9452C182.534 61.9658 182.534 61.9863 182.534 62.0068C182.534 62.0273 182.534 62.0477 182.534 62.0681C182.534 62.0885 182.534 62.1089 182.534 62.1293C182.534 62.1496 182.534 62.1699 182.534 62.1902C182.534 62.2104 182.534 62.2306 182.534 62.2508C182.534 62.271 182.534 62.2912 182.534 62.3113C182.534 62.3314 182.534 62.3515 182.534 62.3716C182.534 62.3916 182.534 62.4116 182.534 62.4316C182.534 62.4515 182.534 62.4715 182.534 62.4914C182.534 62.5113 182.534 62.5311 182.534 62.551C182.534 62.5708 182.534 62.5906 182.534 62.6103C182.534 62.6301 182.534 62.6498 182.534 62.6694C182.534 62.6891 182.534 62.7087 182.534 62.7283C182.534 62.7479 182.534 62.7675 182.534 62.787C182.534 62.8065 182.534 62.826 182.534 62.8455C182.534 62.8649 182.534 62.8843 182.534 62.9037C182.534 62.923 182.534 62.9424 182.534 62.9617C182.534 62.9809 182.534 63.0002 182.534 63.0194C182.534 63.0386 182.534 63.0578 182.534 63.0769C182.534 63.0961 182.534 63.1151 182.534 63.1342C182.534 63.1533 182.534 63.1723 182.534 63.1912C182.534 63.2102 182.534 63.2292 182.534 63.2481C182.534 63.2669 182.534 63.2858 182.534 63.3046C182.534 63.3234 182.534 63.3422 182.534 63.361C182.534 63.3797 182.534 63.3984 182.534 63.417C182.534 63.4357 182.534 63.4543 182.534 63.4729C182.534 63.4915 182.534 63.51 182.534 63.5285C182.534 63.547 182.534 63.5654 182.534 63.5838C182.534 63.6023 182.534 63.6206 182.534 63.639C182.534 63.6573 182.534 63.6756 182.534 63.6938C182.534 63.7121 182.534 63.7303 182.534 63.7485C182.534 63.7666 182.534 63.7847 182.534 63.8028C182.534 63.8209 182.534 63.8389 182.534 63.8569C182.534 63.8749 182.534 63.8929 182.534 63.9108C182.534 63.9287 182.534 63.9466 182.534 63.9644C182.534 63.9823 182.534 64.0001 182.534 64.0178C182.534 64.0355 182.534 64.0532 182.534 64.0709C182.534 64.0886 182.534 64.1062 182.534 64.1238C182.534 64.1413 182.534 64.1589 182.534 64.1764C182.534 64.1939 182.534 64.2113 182.534 64.2287C182.534 64.2461 182.534 64.2635 182.534 64.2808C182.534 64.2981 182.534 64.3154 182.534 64.3326C182.534 64.3498 182.534 64.367 182.534 64.3842C182.534 64.4013 182.534 64.4184 182.534 64.4355C182.534 64.4525 182.534 64.4695 182.534 64.4865C182.534 64.5035 182.534 64.5204 182.534 64.5373C182.534 64.5541 182.534 64.571 182.534 64.5878C182.534 64.6046 182.534 64.6213 182.534 64.638C182.534 64.6547 182.534 64.6714 182.534 64.688C182.534 64.7046 182.534 64.7211 182.534 64.7377C182.534 64.7542 182.534 64.7707 182.534 64.7871C182.534 64.8035 182.534 64.8199 182.534 64.8362C182.534 64.8526 182.534 64.8689 182.534 64.8851C182.534 64.9014 182.534 64.9176 182.534 64.9337C182.534 64.9499 182.534 64.966 182.534 64.9821C182.534 64.9981 182.534 65.0142 182.534 65.0301C182.534 65.0461 182.534 65.062 182.534 65.0779C182.534 65.0938 182.534 65.1096 182.534 65.1254C182.534 65.1412 182.534 65.1569 182.534 65.1726C182.534 65.1883 182.534 65.204 182.534 65.2196C182.534 65.2352 182.534 65.2507 182.534 65.2662C182.534 65.2817 182.534 65.2972 182.534 65.3126C182.534 65.328 182.534 65.3434 182.534 65.3587C182.534 65.374 182.534 65.3893 182.534 65.4045C182.534 65.4197 182.534 65.4349 182.534 65.45C182.534 65.4651 182.534 65.4802 182.534 65.4952C182.534 65.5103 182.534 65.5253 182.534 65.5402C182.534 65.5551 182.534 65.57 182.534 65.5848C182.534 65.5997 182.534 65.6145 182.534 65.6292C182.534 65.6439 182.534 65.6586 182.534 65.6733C182.534 65.6879 182.534 65.7025 182.534 65.717C182.534 65.7316 182.534 65.7461 182.534 65.7605C182.534 65.775 182.534 65.7894 182.534 65.8037C182.534 65.8181 182.534 65.8323 182.534 65.8466C182.534 65.8608 182.534 65.875 182.534 65.8892C182.534 65.9033 182.534 65.9174 182.534 65.9315C182.534 65.9455 182.534 65.9595 182.534 65.9735C182.534 65.9874 182.534 66.0013 182.534 66.0151C182.534 66.029 182.534 66.0428 182.534 66.0565C182.534 66.0703 182.534 66.084 182.534 66.0976C182.534 66.1113 182.534 66.1248 182.534 66.1384C182.534 66.1519 182.534 66.1654 182.534 66.1789C182.534 66.1923 182.534 66.2057 182.534 66.219C182.534 66.2324 182.534 66.2456 182.534 66.2589C182.534 66.2721 182.534 66.2853 182.534 66.2984C182.534 66.3116 182.534 66.3246 182.534 66.3377C182.534 66.3507 182.534 66.3637 182.534 66.3766C182.534 66.3895 182.534 66.4024 182.534 66.4152C182.534 66.428 182.534 66.4408 182.534 66.4535C182.534 66.4662 182.534 66.4789 182.534 66.4915C182.534 66.5041 182.534 66.5166 182.534 66.5291C182.534 66.5416 182.534 66.5541 182.534 66.5665C182.534 66.5789 182.534 66.5912 182.534 66.6035C182.534 66.6158 182.534 66.628 182.534 66.6402C182.534 66.6524 182.534 66.6645 182.534 66.6766C182.534 66.6887 182.534 66.7007 182.534 66.7126C182.534 66.7246 182.534 66.7365 182.534 66.7484C182.534 66.7602 182.534 66.7721 182.534 66.7838C182.534 66.7956 182.534 66.8073 182.534 66.8189C182.534 66.8305 182.534 66.8421 182.534 66.8537C182.534 66.8652 182.534 66.8767 182.534 66.8881C182.534 66.8995 182.534 66.9109 182.534 66.9222C182.534 66.9335 182.534 66.9448 182.534 66.956C182.534 66.9672 182.534 66.9783 182.534 66.9894C182.534 67.0005 182.534 67.0115 182.534 67.0225C182.534 67.0335 182.534 67.0444 182.534 67.0553C182.534 67.0662 182.534 67.077 182.534 67.0877C182.534 67.0985 182.534 67.1092 182.534 67.1199C182.534 67.1305 182.534 67.1411 182.534 67.1516C182.534 67.1622 182.534 67.1726 182.534 67.1831C182.534 67.1935 182.534 67.2038 182.534 67.2141C182.534 67.2245 182.534 67.2347 182.534 67.2449C182.534 67.2551 182.534 67.2652 182.534 67.2753C182.534 67.2854 182.534 67.2954 182.534 67.3054C182.534 67.3153 182.534 67.3252 182.534 67.3351C182.534 67.3449 182.534 67.3547 182.534 67.3645C182.534 67.3742 182.534 67.3839 182.534 67.3935C182.534 67.4031 182.534 67.4127 182.534 67.4222C182.534 67.4317 182.534 67.4411 182.534 67.4505C182.534 67.4599 182.534 67.4692 182.534 67.4785C182.534 67.4878 182.534 67.497 182.534 67.5061C182.534 67.5153 182.534 67.5244 182.534 67.5334C182.534 67.5425 182.534 67.5514 182.534 67.5604C182.534 67.5693 182.534 67.5781 182.534 67.5869C182.534 67.5957 182.534 67.6045 182.534 67.6131C182.534 67.6218 182.534 67.6304 182.534 67.639C182.534 67.6476 182.534 67.6561 182.534 67.6645C182.534 67.673 182.534 67.6813 182.534 67.6897C182.534 67.698 182.534 67.7062 182.534 67.7144C182.534 67.7226 182.534 67.7308 182.534 67.7389C182.534 67.747 182.534 67.755 182.534 67.7629C182.534 67.7709 182.534 67.7788 182.534 67.7866C182.534 67.7945 182.534 67.8022 182.534 67.81C182.534 67.8177 182.534 67.8253 182.534 67.8329C182.534 67.8405 182.534 67.8481 182.534 67.8555C182.534 67.863 182.534 67.8704 182.534 67.8778C182.534 67.8851 182.534 67.8924 182.534 67.8996C182.534 67.9069 182.534 67.914 182.534 67.9211C182.534 67.9282 182.534 67.9353 182.534 67.9422C182.534 67.9492 182.534 67.9561 182.534 67.963C182.534 67.9698 182.534 67.9766 182.534 67.9834C182.534 67.9901 182.534 67.9968 182.534 68.0034C182.534 68.01 182.534 68.0165 182.534 68.023C182.534 68.0295 182.534 68.0359 182.534 68.0422C182.534 68.0486 182.534 68.0549 182.534 68.0611C182.534 68.0673 182.534 68.0735 182.534 68.0796C182.534 68.0857 182.534 68.0917 182.534 68.0977C182.534 68.1037 182.534 68.1096 182.534 68.1154C182.534 68.1213 182.534 68.127 182.534 68.1328C182.534 68.1385 182.534 68.1441 182.534 68.1497C182.534 68.1553 182.534 68.1608 182.534 68.1663C182.534 68.1718 182.534 68.1771 182.534 68.1825C182.534 68.1878 182.534 68.1931 182.534 68.1983C182.534 68.2035 182.534 68.2086 182.534 68.2137C182.534 68.2188 182.534 68.2238 182.534 68.2287C182.534 68.2336 182.534 68.2385 182.534 68.2433C182.534 68.2481 182.534 68.2529 182.534 68.2576C182.534 68.2622 182.534 68.2669 182.534 68.2714C182.534 68.276 182.534 68.2804 182.534 68.2849C182.534 68.2893 182.534 68.2936 182.534 68.2979C182.534 68.3022 182.534 68.3064 182.534 68.3106C182.534 68.3147 182.534 68.3188 182.534 68.3228C182.534 68.3268 182.534 68.3308 182.534 68.3347C182.534 68.3386 182.534 68.3424 182.534 68.3461C182.534 68.3499 182.534 68.3536 182.534 68.3572C182.534 68.3608 182.534 68.3644 182.534 68.3679C182.534 68.3713 182.534 68.3748 182.534 68.3781C182.534 68.3815 182.534 68.3847 182.534 68.3879C182.534 68.3912 182.534 68.3943 182.534 68.3974C182.534 68.4005 182.534 68.4035 182.534 68.4064C182.534 68.4094 182.534 68.4122 182.534 68.415C182.534 68.4178 182.534 68.4206 182.534 68.4233C182.534 68.4259 182.534 68.4285 182.534 68.4311C182.534 68.4336 182.534 68.4361 182.534 68.4385C182.534 68.4408 182.534 68.4432 182.534 68.4454C182.534 68.4477 182.534 68.4499 182.534 68.452C182.534 68.4541 182.534 68.4562 182.534 68.4581C182.534 68.4601 182.534 68.462 182.534 68.4639C182.534 68.4657 182.534 68.4675 182.534 68.4692C182.534 68.4709 182.534 68.4725 182.534 68.4741C182.534 68.4757 182.534 68.4771 182.534 68.4786C182.534 68.48 182.534 68.4813 182.534 68.4826C182.534 68.4839 182.534 68.4851 182.534 68.4863C182.534 68.4874 182.534 68.4885 182.534 68.4895C182.534 68.4905 182.534 68.4914 182.534 68.4923C182.534 68.4931 182.534 68.4939 182.534 68.4946C182.534 68.4953 182.534 68.496 182.534 68.4966C182.534 68.4971 182.534 68.4976 182.534 68.4981C182.534 68.4985 182.534 68.4988 182.534 68.4991C182.534 68.4994 182.534 68.4996 182.534 68.4998C182.534 68.4999 182.534 68.5 186.534 68.5ZM189.486 34.8004C180.299 24.7553 176.654 20.0124 166.874 14.9479L163.195 22.0521C171.451 26.3269 174.1 29.8311 183.583 40.1996L189.486 34.8004ZM1.03448 37.5V112.5H9.03448V37.5H1.03448ZM1.03448 112.5V144H9.03448V112.5H1.03448ZM185.007 33.8032C149.567 48.4478 104.192 67.1978 67.6768 82.2867C49.4193 89.8311 33.3768 96.4602 21.8987 101.203C16.1597 103.575 11.5617 105.475 8.3985 106.782C6.81689 107.435 5.59401 107.941 4.76649 108.283C4.35269 108.454 4.03787 108.584 3.82636 108.671C3.72062 108.715 3.64076 108.748 3.58732 108.77C3.56053 108.781 3.54055 108.789 3.52705 108.795C3.52016 108.798 3.51547 108.8 3.51192 108.801C3.51024 108.802 3.50898 108.802 3.50813 108.803C3.50729 108.803 3.50687 108.803 5.03448 112.5C6.56209 116.197 6.56251 116.197 6.56335 116.196C6.56419 116.196 6.56546 116.195 6.56714 116.195C6.57033 116.193 6.57573 116.191 6.58227 116.188C6.59564 116.183 6.61588 116.175 6.64253 116.164C6.69596 116.141 6.77585 116.108 6.88158 116.065C7.093 115.977 7.40799 115.847 7.8217 115.676C8.6492 115.334 9.87214 114.829 11.4537 114.175C14.6169 112.868 19.2149 110.968 24.9539 108.597C36.4321 103.854 52.4745 97.2247 70.732 89.6803C107.247 74.5915 152.622 55.8415 188.062 41.1968L185.007 33.8032ZM24.5345 292.5H166.034V284.5H24.5345V292.5ZM168.235 291.84C173.923 288.092 178.169 284.82 181.628 281.04C185.119 277.224 187.661 273.056 190.16 267.689L182.909 264.311C180.631 269.201 178.501 272.607 175.726 275.639C172.919 278.707 169.303 281.556 163.833 285.16L168.235 291.84ZM184.964 161.821L3.46369 239.321L6.60526 246.679L188.105 169.179L184.964 161.821ZM190.534 266V196.5H182.534V266H190.534ZM190.534 196.5V165.5H182.534V196.5H190.534ZM1.07669 242.42C0.212417 248.323 -0.202684 253.141 0.0968157 258.034C0.397274 262.942 1.4053 267.748 3.20807 273.666L10.8609 271.334C9.1709 265.787 8.33179 261.627 8.08187 257.545C7.83099 253.446 8.16226 249.248 8.99227 243.58L1.07669 242.42ZM3.72827 274.751C8.82428 282.235 13.3605 286.015 22.3563 291.855L26.7126 285.145C18.1984 279.617 14.6144 276.524 10.3407 270.249L3.72827 274.751ZM184.975 192.817L5.47491 268.817L8.59404 276.183L188.094 200.183L184.975 192.817ZM32.1993 159.503C19.0003 158.959 9.80066 163.623 4.70099 171.028C-0.280732 178.262 -0.87475 187.448 1.67548 195.135C4.22838 202.829 10.1762 209.663 18.9361 211.436C27.721 213.215 38.019 209.645 48.7913 199.398L43.2776 193.602C33.55 202.855 25.7855 204.66 20.5235 203.595C15.2365 202.525 11.1531 198.296 9.26849 192.615C7.38122 186.927 7.94345 180.425 11.2898 175.566C14.5183 170.877 20.8187 167.041 31.8697 167.497L32.1993 159.503ZM88.8616 134.162C92.4587 142.037 96.9557 152.26 100.56 160.529C102.36 164.661 103.935 168.299 105.06 170.904C105.623 172.206 106.073 173.25 106.382 173.968C106.536 174.327 106.656 174.605 106.736 174.793C106.777 174.887 106.807 174.958 106.828 175.006C106.838 175.03 106.846 175.048 106.851 175.06C106.854 175.066 106.856 175.07 106.857 175.073C106.858 175.075 106.858 175.076 106.858 175.077C106.858 175.077 106.859 175.077 106.859 175.078C106.859 175.078 106.859 175.078 110.534 173.5C114.21 171.922 114.21 171.922 114.21 171.922C114.21 171.922 114.21 171.921 114.21 171.921C114.209 171.92 114.209 171.919 114.208 171.917C114.207 171.914 114.205 171.91 114.202 171.904C114.197 171.891 114.189 171.873 114.179 171.849C114.158 171.8 114.127 171.728 114.086 171.634C114.005 171.445 113.885 171.166 113.73 170.806C113.42 170.085 112.969 169.038 112.405 167.732C111.277 165.121 109.698 161.474 107.893 157.333C104.286 149.056 99.766 138.78 96.1384 130.838L88.8616 134.162ZM112.278 177.1L143.244 162.1L139.756 154.9L108.791 169.9L112.278 177.1Z" fill="#000000"/>
<path d="M157.034 151.5V135M186.5 135L177 125.5M177 125.5L157.034 106V135M177 125.5L157.034 135M53.0345 161.5L62.5345 183C77.0345 193.5 92.5345 185 91.0345 172L81.0345 148.5C68.0345 140 53.0345 144 53.0345 161.5Z" stroke="#000000" stroke-width="8" stroke-linecap="round" stroke-linejoin="round"/>
</svg>
