<?xml version="1.0" standalone="no"?><!DOCTYPE svg PUBLIC "-//W3C//DTD SVG 1.1//EN" "http://www.w3.org/Graphics/SVG/1.1/DTD/svg11.dtd"><svg t="1660309847373" class="icon" viewBox="0 0 1024 1024" version="1.1" xmlns="http://www.w3.org/2000/svg" p-id="1137" xmlns:xlink="http://www.w3.org/1999/xlink" width="200" height="200"><defs><style type="text/css"></style></defs><path d="M684.5 541.2l-400.1-400c-14.7-14.7-14.7-38.7 0-53.3 14.7-14.7 38.7-14.7 53.3 0L737.8 488c14.7 14.7 14.7 38.7 0 53.3-14.6 14.6-38.6 14.6-53.3-0.1z" fill="#e6e6e6" p-id="1138"></path><path d="M311.1 67.4c12.1 0 24.1 4.6 33.3 13.8l400.1 400.1c18.4 18.4 18.4 48.3 0 66.7-18.4 18.4-48.3 18.4-66.7 0l-400-400.2c-18.4-18.4-18.4-48.3 0-66.7 9.2-9.2 21.2-13.7 33.3-13.7z m400.1 475.4c7.2 0 14.5-2.8 20-8.3 11-11 11-29 0-40l-400.1-400c-11-11-29-11-40 0s-11 29 0 40l400.1 400.1c5.5 5.5 12.8 8.2 20 8.2z" fill="#e6e6e6" p-id="1139"></path><path d="M284.4 888l400.1-400.1c14.7-14.7 38.7-14.7 53.3 0 14.7 14.7 14.7 38.7 0 53.3l-400 400.1c-14.7 14.7-38.7 14.7-53.3 0-14.7-14.6-14.7-38.6-0.1-53.3z" fill="#e6e6e6" p-id="1140"></path><path d="M711.2 467.4c12.1 0 24.1 4.6 33.3 13.8 18.4 18.4 18.4 48.3 0 66.7L344.4 948c-18.4 18.4-48.3 18.4-66.7 0-18.4-18.4-18.4-48.3 0-66.7l400.1-400.1c9.2-9.2 21.3-13.8 33.4-13.8zM311.1 942.9c7.2 0 14.5-2.8 20-8.3l400.1-400.1c5.3-5.3 8.2-12.4 8.2-20s-2.9-14.7-8.2-20c-10.6-10.6-29.4-10.6-40 0L291.1 894.7c-11 11-11 29 0 40 5.5 5.5 12.8 8.2 20 8.2z" fill="#e6e6e6" p-id="1141"></path></svg>